<svg xmlns="http://www.w3.org/2000/svg" xmlns:xlink="http://www.w3.org/1999/xlink" width="257.045" height="46.794" viewBox="0 0 257.045 46.794">
  <defs>
    <linearGradient id="linear-gradient" x1="0.488" y1="0.109" x2="0.541" y2="1" gradientUnits="objectBoundingBox">
      <stop offset="0" stop-color="#6e00ff"/>
      <stop offset="1" stop-color="#0d0080"/>
    </linearGradient>
  </defs>
  <path id="Path_9" data-name="Path 9" d="M27.324-1.848C22.888-4.348,21.857-10,21.857-10l-6.413-9.734L10.56-14.916V0S5.566-.618,3.305-4.347,1.518-14.916,1.518-14.916V-43.824s4.465-.331,6.726,1.942,2.316,7.15,2.316,7.15V-26l16.764-17.82H39.2L21.912-26.532,39.6,0S31.76.652,27.324-1.848ZM41.316,0V-32.472h8.052v3.864A10.58,10.58,0,0,1,51.579-31.2a9.543,9.543,0,0,1,2.376-1.43,9.046,9.046,0,0,1,2.475-.632A24.39,24.39,0,0,1,59-33.4h1.122v8.844a14.429,14.429,0,0,0-2.376-.2Q49.9-24.75,49.9-16.9s.437,7.582-1.708,11.806A10.44,10.44,0,0,1,41.316,0ZM81.774-19.4a9.022,9.022,0,0,0-.627-3.135,6.554,6.554,0,0,0-1.485-2.244A5.9,5.9,0,0,0,77.55-26.1a7.137,7.137,0,0,0-2.442-.429,6.089,6.089,0,0,0-4.455,1.881A8.028,8.028,0,0,0,68.508-19.4Zm-13.53,5.412a9.27,9.27,0,0,0,2.145,5.874A6.533,6.533,0,0,0,75.5-5.94,7.182,7.182,0,0,0,79.233-6.9,4.333,4.333,0,0,0,81.312-9.57h8.844a14.242,14.242,0,0,1-5.28,7.722A14.962,14.962,0,0,1,75.9.858Q59.664.858,59.664-16.83a20.6,20.6,0,0,1,1.056-6.8,14.677,14.677,0,0,1,3.069-5.214,13.267,13.267,0,0,1,4.917-3.333,17.936,17.936,0,0,1,6.666-1.155q7.524,0,11.385,4.818t3.861,14.52Zm40.392,7.854a6.405,6.405,0,0,0,5.181-2.574,10.383,10.383,0,0,0,2.079-6.732Q115.9-26,108.7-26q-7.392,0-7.392,10.032a11.548,11.548,0,0,0,2.046,7.1A6.31,6.31,0,0,0,108.636-6.138ZM118.082-.89A4.363,4.363,0,0,1,115.7-3.96,9.9,9.9,0,0,1,106.656.858,13.381,13.381,0,0,1,100.98-.33a12.4,12.4,0,0,1-4.422-3.432,16.639,16.639,0,0,1-2.9-5.478A23.555,23.555,0,0,1,92.6-16.566a24.206,24.206,0,0,1,.891-6.765A15.984,15.984,0,0,1,96.1-28.644a11.782,11.782,0,0,1,4.191-3.465,12.59,12.59,0,0,1,5.643-1.221,11.289,11.289,0,0,1,9.636,5.082v-4.224s.4-5.808,2.516-8.778a8.239,8.239,0,0,1,5.932-3.1V0S120.161.1,118.082-.89Zm9.562.89V-32.472h8.58V-7.227C136.224.891,127.644,0,127.644,0Zm0-36.366v-7.986s4.318-.1,6.463,1.895,2.117,6.091,2.117,6.091ZM160.555-19.81c1.98-2.112,5.633-1.574,5.633-1.574v9.24a15.9,15.9,0,0,1-.757,4.917,11.52,11.52,0,0,1-2.37,4.158A11.316,11.316,0,0,1,158.98-.2,14.928,14.928,0,0,1,153.087.858,15.554,15.554,0,0,1,147.03-.2a11.465,11.465,0,0,1-4.115-2.838,10.8,10.8,0,0,1-2.337-4.158,17.117,17.117,0,0,1-.724-5.016V-41.25s4.372.3,6.5,2.5,2.013,6.279,2.013,6.279h11.5s2.958.135,4.538,1.653,1.78,4.419,1.78,4.419h-17.82v13.332a8.448,8.448,0,0,0,1.147,4.785,4.23,4.23,0,0,0,3.77,1.683,4.368,4.368,0,0,0,3.77-1.65,7.806,7.806,0,0,0,1.213-4.686S158.575-17.7,160.555-19.81Zm33.4-11.078a6.875,6.875,0,0,0-2.447-5.016q-2.116-1.65-6.347-1.65-7.8,0-7.8,5.346a3.937,3.937,0,0,0,1.62,3.2,13.673,13.673,0,0,0,5.191,2.145q4.231.99,7.339,1.848a42.794,42.794,0,0,1,5.686,1.98,14.365,14.365,0,0,1,2.745,1.485,8.336,8.336,0,0,1,2.182,2.211,11.048,11.048,0,0,1,1.422,3.168,16.492,16.492,0,0,1,.529,4.488,11.612,11.612,0,0,1-1.32,5.61,12.579,12.579,0,0,1-3.564,4.125,16.408,16.408,0,0,1-5.28,2.574,22.621,22.621,0,0,1-6.4.891q-9.57,0-14.388-3.729T168.036-13.2h8.844a6.391,6.391,0,0,0,2.739,5.313,11.079,11.079,0,0,0,6.7,1.947q4.356,0,6.6-1.581a4.975,4.975,0,0,0,2.244-4.282,6.8,6.8,0,0,0-.265-1.944,3.662,3.662,0,0,0-1.026-1.614,6.909,6.909,0,0,0-2.084-1.285,19.863,19.863,0,0,0-3.441-1.021q-5.028-1.054-8.7-2.141a21.848,21.848,0,0,1-6.054-2.7,10.054,10.054,0,0,1-3.507-3.92A13.376,13.376,0,0,1,168.96-32.3a13.015,13.015,0,0,1,.992-5.074,10.87,10.87,0,0,1,3.042-4.118,15.278,15.278,0,0,1,5.058-2.767,22.166,22.166,0,0,1,7.109-1.021,23.22,23.22,0,0,1,7.141,1.023,16.363,16.363,0,0,1,5.455,2.9,12.993,12.993,0,0,1,3.538,4.554,15.2,15.2,0,0,1,1.388,5.907ZM208.462-3.036c-2.294-2.92-2.476-8.646-2.476-8.646V-43.824s9.174,2.049,9.174,13.005V0S210.755-.116,208.462-3.036Zm29.2-30.954H237.6L231.99-16.5h11.154ZM248.556,0l-2.772-9.042h-16.17L226.512,0h-9.7l15.642-43.824s5.314-.422,8.942,2.337,5.573,8.7,5.573,8.7l7.785,22.09L258.522,0Z" transform="translate(-1.477 45.276)" fill="url(#linear-gradient)"/>
</svg>
