<svg xmlns="http://www.w3.org/2000/svg" width="213.084" height="18.262" viewBox="0 0 213.084 18.262">
  <path id="Path_2" data-name="Path 2" d="M1.455,0V-14.316H6.094a16.821,16.821,0,0,1,3.438.215,3.754,3.754,0,0,1,2.061,1.4,4.444,4.444,0,0,1,.83,2.788A4.671,4.671,0,0,1,11.943-7.7a3.925,3.925,0,0,1-1.216,1.411,4.19,4.19,0,0,1-1.5.679,16.5,16.5,0,0,1-3,.205H4.346V0ZM4.346-11.895v4.063H5.928a7.475,7.475,0,0,0,2.285-.225,1.9,1.9,0,0,0,.9-.7,1.924,1.924,0,0,0,.327-1.113,1.849,1.849,0,0,0-.459-1.289A2,2,0,0,0,7.822-11.8a13.894,13.894,0,0,0-2.08-.1ZM20.6,0V-1.553A4,4,0,0,1,19.112-.244a4.175,4.175,0,0,1-1.948.479,3.809,3.809,0,0,1-1.875-.459,2.71,2.71,0,0,1-1.2-1.289,5.752,5.752,0,0,1-.371-2.295v-6.562h2.744v4.766a13.216,13.216,0,0,0,.151,2.681,1.462,1.462,0,0,0,.552.781,1.7,1.7,0,0,0,1.016.288,2.159,2.159,0,0,0,1.26-.386A1.962,1.962,0,0,0,20.2-3.2,11.109,11.109,0,0,0,20.406-6v-4.375H23.15V0Zm3.424-2.959,2.754-.42a2.018,2.018,0,0,0,.713,1.216,2.409,2.409,0,0,0,1.5.415,2.715,2.715,0,0,0,1.6-.391.872.872,0,0,0,.361-.732.721.721,0,0,0-.2-.518,2.187,2.187,0,0,0-.918-.361,14.8,14.8,0,0,1-4.209-1.338,2.672,2.672,0,0,1-1.23-2.334,2.876,2.876,0,0,1,1.064-2.266,4.971,4.971,0,0,1,3.3-.918,5.758,5.758,0,0,1,3.164.693,3.544,3.544,0,0,1,1.426,2.051l-2.588.479a1.6,1.6,0,0,0-.63-.928,2.3,2.3,0,0,0-1.323-.322,2.981,2.981,0,0,0-1.553.3.65.65,0,0,0-.312.557.606.606,0,0,0,.273.5,10.3,10.3,0,0,0,2.563.771,7.631,7.631,0,0,1,3.062,1.221,2.537,2.537,0,0,1,.859,2.041A3.133,3.133,0,0,1,32.521-.791,5.274,5.274,0,0,1,29,.234a5.785,5.785,0,0,1-3.354-.859A3.959,3.959,0,0,1,24.025-2.959ZM35.018,0V-14.316h2.744v7.6l3.213-3.652h3.379L40.809-6.582,44.607,0H41.648L39.041-4.658,37.762-3.32V0ZM44.6-5.332a5.61,5.61,0,0,1,.674-2.646,4.625,4.625,0,0,1,1.909-1.953,5.666,5.666,0,0,1,2.759-.674A5.178,5.178,0,0,1,53.8-9.077a5.28,5.28,0,0,1,1.5,3.862,5.343,5.343,0,0,1-1.519,3.9A5.133,5.133,0,0,1,49.965.234a6.022,6.022,0,0,1-2.72-.645A4.421,4.421,0,0,1,45.277-2.3,6.3,6.3,0,0,1,44.6-5.332Zm2.813.146a3.436,3.436,0,0,0,.732,2.363A2.327,2.327,0,0,0,49.955-2a2.312,2.312,0,0,0,1.8-.82,3.483,3.483,0,0,0,.728-2.383,3.42,3.42,0,0,0-.728-2.344,2.312,2.312,0,0,0-1.8-.82,2.327,2.327,0,0,0-1.807.82A3.436,3.436,0,0,0,47.416-5.186Zm8.961-5.186h2.559v1.523a3.829,3.829,0,0,1,1.348-1.27,3.715,3.715,0,0,1,1.885-.488,3.954,3.954,0,0,1,3.066,1.416,5.731,5.731,0,0,1,1.26,3.945,5.905,5.905,0,0,1-1.27,4.038A3.955,3.955,0,0,1,62.148.234a3.5,3.5,0,0,1-1.558-.342,5.25,5.25,0,0,1-1.47-1.172V3.945H56.377Zm2.715,5.01a4,4,0,0,0,.693,2.583,2.121,2.121,0,0,0,1.689.835,1.983,1.983,0,0,0,1.592-.767A3.95,3.95,0,0,0,63.7-5.225a3.749,3.749,0,0,0-.654-2.422,2.024,2.024,0,0,0-1.621-.791,2.105,2.105,0,0,0-1.67.776A3.456,3.456,0,0,0,59.092-5.361ZM77.184,0H74.635V-1.523A4.118,4.118,0,0,1,73.136-.2a3.846,3.846,0,0,1-1.743.435,3.95,3.95,0,0,1-3.062-1.44,5.859,5.859,0,0,1-1.274-4.019A5.791,5.791,0,0,1,68.3-9.233a4.043,4.043,0,0,1,3.135-1.372A3.883,3.883,0,0,1,74.439-9.16v-5.156h2.744ZM69.859-5.41a4.749,4.749,0,0,0,.459,2.4,2.074,2.074,0,0,0,1.855,1.074,2.02,2.02,0,0,0,1.611-.806,3.719,3.719,0,0,0,.664-2.407A4.07,4.07,0,0,0,73.8-7.72a2.04,2.04,0,0,0-1.65-.786,2.062,2.062,0,0,0-1.636.776A3.508,3.508,0,0,0,69.859-5.41Zm9.029-6.367v-2.539h2.744v2.539ZM78.889,0V-10.371h2.744V0ZM88.2-10.371v2.188H86.326V-4a10.4,10.4,0,0,0,.054,1.479.6.6,0,0,0,.244.347.774.774,0,0,0,.464.137,3.55,3.55,0,0,0,1.1-.264l.234,2.129a5.455,5.455,0,0,1-2.168.41A3.439,3.439,0,0,1,84.92-.015a1.953,1.953,0,0,1-.874-.645,2.544,2.544,0,0,1-.386-1.069,13.3,13.3,0,0,1-.088-1.934V-8.184h-1.26v-2.187h1.26v-2.061l2.754-1.6v3.662ZM93.7,0V-14.316h9.814v2.422H96.592v3.389h5.977v2.422H96.592V0Zm11.178,0V-14.316h2.744V0ZM108.8-5.332a5.61,5.61,0,0,1,.674-2.646,4.625,4.625,0,0,1,1.909-1.953,5.666,5.666,0,0,1,2.759-.674A5.178,5.178,0,0,1,118-9.077a5.28,5.28,0,0,1,1.5,3.862,5.343,5.343,0,0,1-1.519,3.9A5.133,5.133,0,0,1,114.162.234a6.022,6.022,0,0,1-2.72-.645,4.421,4.421,0,0,1-1.968-1.89A6.3,6.3,0,0,1,108.8-5.332Zm2.813.146a3.436,3.436,0,0,0,.732,2.363,2.327,2.327,0,0,0,1.807.82,2.312,2.312,0,0,0,1.8-.82,3.483,3.483,0,0,0,.728-2.383,3.42,3.42,0,0,0-.728-2.344,2.312,2.312,0,0,0-1.8-.82,2.327,2.327,0,0,0-1.807.82A3.436,3.436,0,0,0,111.613-5.186ZM123.279,0h-2.744V-10.371h2.549V-8.9a4.432,4.432,0,0,1,1.177-1.377,2.165,2.165,0,0,1,1.187-.332,3.483,3.483,0,0,1,1.807.518L126.4-7.7a2.408,2.408,0,0,0-1.289-.449,1.523,1.523,0,0,0-.977.317,2.17,2.17,0,0,0-.63,1.147,16.3,16.3,0,0,0-.229,3.477Zm10.162-3.3,2.734.459a4.485,4.485,0,0,1-1.665,2.29,4.891,4.891,0,0,1-2.847.786,4.64,4.64,0,0,1-4-1.768,5.938,5.938,0,0,1-1.025-3.574,5.727,5.727,0,0,1,1.348-4.038,4.438,4.438,0,0,1,3.408-1.46,4.6,4.6,0,0,1,3.652,1.528,6.762,6.762,0,0,1,1.279,4.683h-6.875a2.776,2.776,0,0,0,.664,1.9,2.077,2.077,0,0,0,1.582.679,1.68,1.68,0,0,0,1.084-.352A2.171,2.171,0,0,0,133.441-3.3Zm.156-2.773a2.642,2.642,0,0,0-.615-1.812,1.888,1.888,0,0,0-1.426-.62,1.906,1.906,0,0,0-1.484.654,2.532,2.532,0,0,0-.576,1.777Zm2.994,3.115,2.754-.42a2.018,2.018,0,0,0,.713,1.216,2.409,2.409,0,0,0,1.5.415,2.715,2.715,0,0,0,1.6-.391.872.872,0,0,0,.361-.732.721.721,0,0,0-.2-.518,2.187,2.187,0,0,0-.918-.361A14.8,14.8,0,0,1,138.2-5.088a2.672,2.672,0,0,1-1.23-2.334,2.876,2.876,0,0,1,1.064-2.266,4.971,4.971,0,0,1,3.3-.918,5.758,5.758,0,0,1,3.164.693,3.544,3.544,0,0,1,1.426,2.051l-2.588.479a1.6,1.6,0,0,0-.63-.928,2.3,2.3,0,0,0-1.323-.322,2.981,2.981,0,0,0-1.553.3.65.65,0,0,0-.312.557.606.606,0,0,0,.273.5,10.3,10.3,0,0,0,2.563.771,7.631,7.631,0,0,1,3.062,1.221,2.537,2.537,0,0,1,.859,2.041,3.133,3.133,0,0,1-1.191,2.451A5.274,5.274,0,0,1,141.563.234a5.785,5.785,0,0,1-3.354-.859A3.959,3.959,0,0,1,136.592-2.959ZM152.219,0V-14.316h4.326l2.6,9.766,2.568-9.766h4.336V0h-2.686V-11.27L160.52,0h-2.783L154.9-11.27V0Zm17.73-7.207-2.49-.449A3.879,3.879,0,0,1,168.9-9.883a5.289,5.289,0,0,1,3.047-.723,6.566,6.566,0,0,1,2.734.435,2.727,2.727,0,0,1,1.265,1.1,5.659,5.659,0,0,1,.366,2.456l-.029,3.2a11.12,11.12,0,0,0,.132,2.017A5.886,5.886,0,0,0,176.912,0H174.2q-.107-.273-.264-.811-.068-.244-.1-.322a4.947,4.947,0,0,1-1.5,1.025,4.307,4.307,0,0,1-1.709.342A3.534,3.534,0,0,1,168.1-.635a2.889,2.889,0,0,1-.923-2.2A2.949,2.949,0,0,1,167.6-4.4a2.744,2.744,0,0,1,1.177-1.055,9.2,9.2,0,0,1,2.183-.64,14.951,14.951,0,0,0,2.666-.674v-.273a1.421,1.421,0,0,0-.391-1.128,2.341,2.341,0,0,0-1.475-.337,1.964,1.964,0,0,0-1.143.288A2,2,0,0,0,169.949-7.207Zm3.672,2.227a17.153,17.153,0,0,1-1.67.42,5.03,5.03,0,0,0-1.494.479,1.144,1.144,0,0,0-.537.967,1.346,1.346,0,0,0,.43,1,1.5,1.5,0,0,0,1.094.42,2.376,2.376,0,0,0,1.416-.488,1.719,1.719,0,0,0,.654-.908,5.419,5.419,0,0,0,.107-1.338ZM187.455,0h-2.744V-5.293a8.181,8.181,0,0,0-.176-2.173,1.524,1.524,0,0,0-.571-.767,1.633,1.633,0,0,0-.952-.273,2.2,2.2,0,0,0-1.279.391,1.968,1.968,0,0,0-.776,1.035,8.948,8.948,0,0,0-.21,2.383V0H178V-10.371h2.549v1.523a4.153,4.153,0,0,1,3.418-1.758,4.117,4.117,0,0,1,1.66.327,2.782,2.782,0,0,1,1.138.835,3.025,3.025,0,0,1,.537,1.152,8.572,8.572,0,0,1,.151,1.846ZM198.75,0H196.2V-1.523A4.118,4.118,0,0,1,194.7-.2a3.846,3.846,0,0,1-1.743.435,3.95,3.95,0,0,1-3.062-1.44,5.859,5.859,0,0,1-1.274-4.019,5.791,5.791,0,0,1,1.24-4.009A4.043,4.043,0,0,1,193-10.605a3.883,3.883,0,0,1,3.008,1.445v-5.156h2.744Zm-7.324-5.41a4.749,4.749,0,0,0,.459,2.4,2.074,2.074,0,0,0,1.855,1.074,2.02,2.02,0,0,0,1.611-.806,3.719,3.719,0,0,0,.664-2.407,4.07,4.07,0,0,0-.645-2.573,2.04,2.04,0,0,0-1.65-.786,2.062,2.062,0,0,0-1.636.776A3.508,3.508,0,0,0,191.426-5.41Zm9.029-6.367v-2.539H203.2v2.539Zm0,11.777V-10.371H203.2V0Zm7.184,0h-2.744V-10.371h2.549V-8.9a4.432,4.432,0,0,1,1.177-1.377,2.165,2.165,0,0,1,1.187-.332,3.483,3.483,0,0,1,1.807.518l-.85,2.393a2.408,2.408,0,0,0-1.289-.449,1.523,1.523,0,0,0-.977.317,2.17,2.17,0,0,0-.63,1.147,16.3,16.3,0,0,0-.229,3.477Zm4.156-11.777v-2.539h2.744v2.539Zm0,11.777V-10.371h2.744V0Z" transform="translate(-1.455 14.316)" fill="blue"/>
</svg>
