<svg xmlns="http://www.w3.org/2000/svg" width="298.24" height="28.105" viewBox="0 0 198.24 18.105">
  <path id="Path_1" data-name="Path 1" d="M5.88-7.08a2.322,2.322,0,0,0,1.73-.55,1.975,1.975,0,0,0,.53-1.43,1.888,1.888,0,0,0-.53-1.38,2.349,2.349,0,0,0-1.73-.54H3.24v3.9ZM.46,0V-13.28H6.32a4.478,4.478,0,0,1,1.76.33,3.94,3.94,0,0,1,1.34.92,4.113,4.113,0,0,1,.86,1.37,4.64,4.64,0,0,1,.3,1.68,4.56,4.56,0,0,1-.3,1.67,3.714,3.714,0,0,1-.86,1.32,3.99,3.99,0,0,1-1.34.86,4.732,4.732,0,0,1-1.76.31H3.24v2.176a4.075,4.075,0,0,1-.926,1.9A3.394,3.394,0,0,1,.46,0ZM17.5,0V-1.38A3.338,3.338,0,0,1,14.44.26,3.409,3.409,0,0,1,13.09,0a3.005,3.005,0,0,1-1.05-.74,3.5,3.5,0,0,1-.69-1.14,4.152,4.152,0,0,1-.25-1.48V-9.84h2.6v6.08q0,1.84,1.66,1.84a1.828,1.828,0,0,0,1.51-.63,2.477,2.477,0,0,0,.51-1.61V-7.27a3.54,3.54,0,0,1,.706-1.988A2.847,2.847,0,0,1,19.96-9.84V0Zm9.42-6.86a1.44,1.44,0,0,0-.51-.99,2.067,2.067,0,0,0-1.25-.31,2.991,2.991,0,0,0-1.21.19.663.663,0,0,0-.41.65.721.721,0,0,0,.41.64,5.278,5.278,0,0,0,1.19.46l2.16.61a5.335,5.335,0,0,1,1.41.59,1.969,1.969,0,0,1,.76.85A3.383,3.383,0,0,1,29.7-2.8,2.682,2.682,0,0,1,28.6-.61a5.182,5.182,0,0,1-3.26.87A7.139,7.139,0,0,1,23.42.02a4.479,4.479,0,0,1-1.47-.69,3.152,3.152,0,0,1-.94-1.08,3.172,3.172,0,0,1-.35-1.41h2.68a1.257,1.257,0,0,0,.55,1.095,2.441,2.441,0,0,0,1.43.385,3.171,3.171,0,0,0,1.27-.231.755.755,0,0,0,.53-.712.848.848,0,0,0-.39-.782,4.054,4.054,0,0,0-1.19-.421A15.651,15.651,0,0,1,23.22-4.5a4.881,4.881,0,0,1-1.37-.772,2.127,2.127,0,0,1-.66-.922,3.482,3.482,0,0,1-.17-1.123,2.518,2.518,0,0,1,.23-1.063,2.334,2.334,0,0,1,.73-.882,3.928,3.928,0,0,1,1.3-.611,7.167,7.167,0,0,1,1.96-.231,4.629,4.629,0,0,1,3.1.86,3.308,3.308,0,0,1,1.08,2.38ZM36.36,0,34.2-4.42l-1.26,1.3V0h-2.6V-13.44a3.276,3.276,0,0,1,1.994,1.114,5.148,5.148,0,0,1,.606,2.577V-6.1l3.24-3.74h3.18l-3.3,3.62L39.28,0Zm7.36-1.92q2.38,0,2.38-3,0-2.98-2.38-2.98T41.34-4.92Q41.34-1.92,43.72-1.92ZM43.71.26a5.64,5.64,0,0,1-2.136-.381,4.488,4.488,0,0,1-1.587-1.062A4.536,4.536,0,0,1,39-2.826a6.284,6.284,0,0,1-.339-2.1,6.182,6.182,0,0,1,.349-2.124A4.578,4.578,0,0,1,40.017-8.7,4.5,4.5,0,0,1,41.6-9.749a5.638,5.638,0,0,1,2.106-.371,5.5,5.5,0,0,1,2.076.371,4.48,4.48,0,0,1,1.567,1.042,4.55,4.55,0,0,1,1,1.633A6.244,6.244,0,0,1,48.7-4.93,6.159,6.159,0,0,1,48.351-2.8a4.668,4.668,0,0,1-1,1.633A4.4,4.4,0,0,1,45.776-.111,5.524,5.524,0,0,1,43.71.26ZM54.2-1.96q2.24,0,2.24-3.04a3.5,3.5,0,0,0-.62-2.15,1.912,1.912,0,0,0-1.6-.83,1.941,1.941,0,0,0-1.57.78,3.146,3.146,0,0,0-.63,2.04Q52.02-1.96,54.2-1.96ZM49.56,4.66V-9.84h2.5l.02,1.2a3,3,0,0,1,2.74-1.46,4.074,4.074,0,0,1,1.71.36A3.736,3.736,0,0,1,57.88-8.7a5.042,5.042,0,0,1,.88,1.66,7.138,7.138,0,0,1,.32,2.22,7.335,7.335,0,0,1-.27,2.05,4.844,4.844,0,0,1-.79,1.61A3.57,3.57,0,0,1,56.75-.11a3.815,3.815,0,0,1-1.71.37,3.421,3.421,0,0,1-2.92-1.54V1.241a5.041,5.041,0,0,1-.71,2.342A3.329,3.329,0,0,1,49.56,4.66ZM64.58-1.86a1.941,1.941,0,0,0,1.57-.78,3.146,3.146,0,0,0,.63-2.04q0-3.2-2.18-3.2-2.24,0-2.24,3.04a3.5,3.5,0,0,0,.62,2.15A1.912,1.912,0,0,0,64.58-1.86ZM66.74,0l-.02-1.2A3,3,0,0,1,63.98.26,4.055,4.055,0,0,1,62.26-.1a3.759,3.759,0,0,1-1.34-1.04,5.042,5.042,0,0,1-.88-1.66,7.138,7.138,0,0,1-.32-2.22,7.335,7.335,0,0,1,.27-2.05,4.844,4.844,0,0,1,.79-1.61,3.57,3.57,0,0,1,1.27-1.05,3.815,3.815,0,0,1,1.71-.37,3.421,3.421,0,0,1,2.92,1.54v-2.46a3.622,3.622,0,0,1,.776-1.906,2.651,2.651,0,0,1,1.784-.514V0Zm3.6,0V-9.84h2.6V0Zm0-11.02v-2.42h2.6v2.42Zm9.28,4.54h2.4v2.8a4.817,4.817,0,0,1-.229,1.49,3.491,3.491,0,0,1-.718,1.26,3.429,3.429,0,0,1-1.237.87A4.524,4.524,0,0,1,78.05.26a4.713,4.713,0,0,1-1.835-.32,3.474,3.474,0,0,1-1.247-.86,3.273,3.273,0,0,1-.708-1.26A5.187,5.187,0,0,1,74.04-3.7v-8.8a3.186,3.186,0,0,1,1.968.664,3.238,3.238,0,0,1,.612,2h5.4V-8h-5.4v4.04a2.56,2.56,0,0,0,.348,1.45A1.282,1.282,0,0,0,78.11-2a1.324,1.324,0,0,0,1.143-.5,2.366,2.366,0,0,0,.368-1.42Zm11.02.88v2.708a3.93,3.93,0,0,1-.8,2.083A3.459,3.459,0,0,1,87.86,0V-13.26h9.46v2.3H90.64v3.02h5.84V-5.6Zm7.28,2.8V-13.44a2.855,2.855,0,0,1,1.744.957,5.908,5.908,0,0,1,.856,2.363V0S97.92.564,97.92-2.8Zm8.46.876q2.38,0,2.38-3,0-2.98-2.38-2.98T104-4.92Q104-1.92,106.38-1.92ZM106.37.26a5.64,5.64,0,0,1-2.136-.381,4.488,4.488,0,0,1-1.587-1.062,4.536,4.536,0,0,1-.988-1.643,6.284,6.284,0,0,1-.339-2.1,6.182,6.182,0,0,1,.349-2.124A4.578,4.578,0,0,1,102.677-8.7a4.5,4.5,0,0,1,1.587-1.052,5.638,5.638,0,0,1,2.106-.371,5.5,5.5,0,0,1,2.076.371,4.48,4.48,0,0,1,1.567,1.042,4.55,4.55,0,0,1,1,1.633,6.244,6.244,0,0,1,.349,2.144,6.159,6.159,0,0,1-.349,2.134,4.668,4.668,0,0,1-1,1.633,4.4,4.4,0,0,1-1.577,1.052A5.524,5.524,0,0,1,106.37.26ZM112.22,0V-9.84h2.44v1.171a3.206,3.206,0,0,1,.67-.786,2.892,2.892,0,0,1,.72-.433,2.741,2.741,0,0,1,.75-.191,7.391,7.391,0,0,1,.78-.04h.34v2.68a4.373,4.373,0,0,0-.72-.06,2.1,2.1,0,0,0-2.38,2.38V-2.8a3.733,3.733,0,0,1-.8,1.769A4.56,4.56,0,0,1,112.22,0Zm12.26-5.88a2.734,2.734,0,0,0-.19-.95,1.986,1.986,0,0,0-.45-.68,1.788,1.788,0,0,0-.64-.4,2.163,2.163,0,0,0-.74-.13,1.845,1.845,0,0,0-1.35.57,2.433,2.433,0,0,0-.65,1.59Zm-4.1,1.64a2.809,2.809,0,0,0,.65,1.78,1.98,1.98,0,0,0,1.55.66,2.176,2.176,0,0,0,1.13-.29,1.313,1.313,0,0,0,.63-.81h2.68a4.316,4.316,0,0,1-1.6,2.34,4.534,4.534,0,0,1-2.72.82q-4.92,0-4.92-5.36a6.243,6.243,0,0,1,.32-2.06,4.448,4.448,0,0,1,.93-1.58,4.02,4.02,0,0,1,1.49-1.01,5.435,5.435,0,0,1,2.02-.35,4.158,4.158,0,0,1,3.45,1.46,6.948,6.948,0,0,1,1.17,4.4Zm13.5-2.62a1.44,1.44,0,0,0-.51-.99,2.067,2.067,0,0,0-1.25-.31,2.991,2.991,0,0,0-1.21.19.663.663,0,0,0-.41.65.721.721,0,0,0,.41.64,5.278,5.278,0,0,0,1.19.46l2.16.61a5.335,5.335,0,0,1,1.41.59,1.969,1.969,0,0,1,.76.85,3.383,3.383,0,0,1,.23,1.37,2.682,2.682,0,0,1-1.1,2.19,5.182,5.182,0,0,1-3.26.87,7.139,7.139,0,0,1-1.92-.24,4.479,4.479,0,0,1-1.47-.69,3.152,3.152,0,0,1-.94-1.08,3.172,3.172,0,0,1-.35-1.41h2.68a1.257,1.257,0,0,0,.55,1.095,2.441,2.441,0,0,0,1.43.385,3.171,3.171,0,0,0,1.27-.231.755.755,0,0,0,.53-.712.848.848,0,0,0-.39-.782,4.054,4.054,0,0,0-1.19-.421,15.651,15.651,0,0,1-2.32-.672,4.881,4.881,0,0,1-1.37-.772,2.127,2.127,0,0,1-.66-.922,3.483,3.483,0,0,1-.17-1.123,2.518,2.518,0,0,1,.23-1.063,2.334,2.334,0,0,1,.73-.882,3.928,3.928,0,0,1,1.3-.611,7.167,7.167,0,0,1,1.96-.231,4.629,4.629,0,0,1,3.1.86,3.308,3.308,0,0,1,1.08,2.38ZM152.46,0V-9.1L149.98,0h-2.76l-2.46-9.06V0a2.107,2.107,0,0,1-1.929-.972A8.918,8.918,0,0,1,142.18-4.4V-13.28h4.08l2.4,9.74,2.4-9.74h4V0Zm9.56-4.82a1.406,1.406,0,0,1-.58.32,10.643,10.643,0,0,1-1.1.26,3.726,3.726,0,0,0-1.54.56,1.188,1.188,0,0,0-.42.98q0,1.1,1.26,1.1a2.507,2.507,0,0,0,.93-.17,2.316,2.316,0,0,0,.74-.46,2.3,2.3,0,0,0,.5-.68,1.871,1.871,0,0,0,.19-.83ZM162.2,0a4.02,4.02,0,0,1-.159-.88,3.217,3.217,0,0,1-1.22.83,4.634,4.634,0,0,1-1.76.31,3.52,3.52,0,0,1-2.49-.75,2.567,2.567,0,0,1-.79-1.95,3.569,3.569,0,0,1,.34-1.69,2.535,2.535,0,0,1,.94-.99,4.528,4.528,0,0,1,1.43-.53q.83-.17,1.81-.31a3.489,3.489,0,0,0,1.32-.37.839.839,0,0,0,.34-.75.836.836,0,0,0-.45-.75,2.341,2.341,0,0,0-1.21-.27,1.748,1.748,0,0,0-1.29.4,1.874,1.874,0,0,0-.49,1.06H156.1a4.464,4.464,0,0,1,.25-1.4,2.682,2.682,0,0,1,.74-1.1,3.462,3.462,0,0,1,1.329-.71,6.9,6.9,0,0,1,2-.25,6.461,6.461,0,0,1,1.964.26,3.16,3.16,0,0,1,1.3.75,2.858,2.858,0,0,1,.708,1.22,5.734,5.734,0,0,1,.219,1.65V0Zm9.761,0V-5.96a2.287,2.287,0,0,0-.38-1.54,1.743,1.743,0,0,0-1.3-.4q-2.02,0-2.02,2.26v2.632a4.129,4.129,0,0,1-.716,2.128A3.262,3.262,0,0,1,165.66,0V-9.84h2.48V-8.4a3.171,3.171,0,0,1,1.216-1.281,3.9,3.9,0,0,1,1.954-.434,3.879,3.879,0,0,1,1.3.21,2.743,2.743,0,0,1,1.027.631,3.025,3.025,0,0,1,.678,1.032,3.721,3.721,0,0,1,.249,1.413V0Zm8.32-1.86a1.941,1.941,0,0,0,1.57-.78,3.146,3.146,0,0,0,.63-2.04q0-3.2-2.18-3.2-2.24,0-2.24,3.04a3.5,3.5,0,0,0,.62,2.15A1.912,1.912,0,0,0,180.28-1.86ZM182.44,0l-.02-1.2A3,3,0,0,1,179.68.26a4.055,4.055,0,0,1-1.72-.36,3.759,3.759,0,0,1-1.34-1.04,5.042,5.042,0,0,1-.88-1.66,7.138,7.138,0,0,1-.32-2.22,7.335,7.335,0,0,1,.27-2.05,4.844,4.844,0,0,1,.79-1.61,3.57,3.57,0,0,1,1.27-1.05,3.815,3.815,0,0,1,1.71-.37,3.421,3.421,0,0,1,2.92,1.54v-2.46a3.572,3.572,0,0,1,.786-1.858,2.788,2.788,0,0,1,1.774-.562V0Zm3.6,0V-9.84h2.6V0Zm0-11.02v-2.42h2.6v2.42ZM189.74,0V-9.84a2.974,2.974,0,0,1,1.545.11,2.121,2.121,0,0,1,.895,1.061,3.206,3.206,0,0,1,.67-.786,2.891,2.891,0,0,1,.72-.433,2.741,2.741,0,0,1,.75-.191,7.391,7.391,0,0,1,.78-.04h.34v2.68a4.373,4.373,0,0,0-.72-.06,2.1,2.1,0,0,0-2.38,2.38v3.26a1.909,1.909,0,0,1-.609,1.482A3.859,3.859,0,0,1,189.74,0Zm6.36,0V-9.84h2.6v6.775A4.572,4.572,0,0,1,197.927-.9,3.166,3.166,0,0,1,196.1,0Zm0-11.02v-2.42h2.6v2.42Z" transform="translate(-0.46 13.445)" fill="#1900ff"/>
</svg>
